<svg width="50" height="50" viewBox="0 0 50 50" fill="none" xmlns="http://www.w3.org/2000/svg">
<path d="M25.2 11.9C18.2 11.9 12.4 17.6 12.4 24.7C12.4 31.8 18.1 37.5 25.2 37.5C32.3 37.5 38 31.7 38 24.7C38 17.7 32.2 11.9 25.2 11.9ZM25.2 32.9C20.7 32.9 17 29.2 17 24.7C17 20.2 20.7 16.5 25.2 16.5C29.7 16.5 33.4 20.2 33.4 24.7C33.4 29.2 29.7 32.9 25.2 32.9Z" fill="white"/>
<path d="M38.5 14.5C40.1017 14.5 41.4 13.2016 41.4 11.6C41.4 9.99837 40.1017 8.7 38.5 8.7C36.8984 8.7 35.6 9.99837 35.6 11.6C35.6 13.2016 36.8984 14.5 38.5 14.5Z" fill="white"/>
<path d="M46 4.1C43.4 1.4 39.7 0 35.5 0H14.9C6.20002 0 0.400024 5.8 0.400024 14.5V35C0.400024 39.3 1.80002 43 4.60002 45.7C7.30002 48.3 10.9 49.6 15 49.6H35.4C39.7 49.6 43.3 48.2 45.9 45.7C48.6 43.1 50 39.4 50 35.1V14.5C50 10.3 48.6 6.7 46 4.1ZM45.6 35.1C45.6 38.2 44.5 40.7 42.7 42.4C40.9 44.1 38.4 45 35.4 45H15C12 45 9.50002 44.1 7.70002 42.4C5.90002 40.6 5.00002 38.1 5.00002 35V14.5C5.00002 11.5 5.90002 9 7.70002 7.2C9.40002 5.5 12 4.6 15 4.6H35.6C38.6 4.6 41.1 5.5 42.9 7.3C44.6 9.1 45.6 11.6 45.6 14.5V35.1Z" fill="white"/>
</svg>
