<svg width="119" height="125" viewBox="0 0 119 125" fill="none" xmlns="http://www.w3.org/2000/svg">
<g clip-path="url(#clip0)">
<path fill-rule="evenodd" clip-rule="evenodd" d="M117.945 28.362C117.989 28.5246 118.012 28.6924 118.012 28.8609V55.0528C118.012 55.389 117.924 55.7192 117.756 56.0101C117.588 56.301 117.347 56.5423 117.056 56.7095L95.1696 69.3663V94.453C95.1696 95.1357 94.8083 95.766 94.2189 96.1097L48.5319 122.526C48.4273 122.586 48.3133 122.624 48.1992 122.665C48.1564 122.679 48.116 122.705 48.0708 122.717C47.7515 122.802 47.4158 122.802 47.0964 122.717C47.0441 122.703 46.9966 122.674 46.9467 122.655C46.8421 122.617 46.7328 122.583 46.6329 122.526L0.955427 96.1097C0.665252 95.9423 0.424145 95.701 0.256408 95.4101C0.0886703 95.1193 0.000229919 94.7891 0 94.453L0 15.8771C0 15.7052 0.0237669 15.5381 0.0665472 15.3758C0.0808073 15.3209 0.114081 15.2707 0.133094 15.2158C0.168745 15.1156 0.202018 15.0129 0.254305 14.9198C0.289956 14.8578 0.342243 14.8076 0.385023 14.7503C0.439687 14.6739 0.489597 14.5952 0.553768 14.5283C0.608431 14.4734 0.679732 14.4328 0.741526 14.3851C0.81045 14.3278 0.872243 14.2657 0.950674 14.2204H0.953051L23.793 1.0122C24.0822 0.845051 24.41 0.75708 24.7437 0.75708C25.0773 0.75708 25.4051 0.845051 25.6943 1.0122L48.5343 14.2204H48.539C48.6151 14.2681 48.6793 14.3278 48.7482 14.3827C48.81 14.4305 48.8789 14.4734 48.9336 14.5259C49.0001 14.5952 49.0476 14.6739 49.1047 14.7503C49.1451 14.8076 49.1998 14.8578 49.233 14.9198C49.2877 15.0153 49.3186 15.1156 49.3566 15.2158C49.3756 15.2707 49.4089 15.3209 49.4232 15.3782C49.4669 15.5408 49.4893 15.7086 49.4897 15.8771V64.9548L68.5222 53.9476V28.8585C68.5222 28.6914 68.546 28.5219 68.5888 28.362C68.6054 28.3047 68.6363 28.2545 68.6553 28.1996C68.6933 28.0994 68.7266 27.9967 68.7789 27.9036C68.8145 27.8415 68.8668 27.7914 68.9072 27.7341C68.9643 27.6577 69.0118 27.579 69.0784 27.5121C69.133 27.4572 69.2019 27.4166 69.2637 27.3689C69.335 27.3116 69.3968 27.2495 69.4729 27.2042H69.4753L92.3176 13.996C92.6067 13.8286 92.9345 13.7405 93.2683 13.7405C93.602 13.7405 93.9298 13.8286 94.2189 13.996L117.059 27.2042C117.14 27.2519 117.201 27.3116 117.273 27.3665C117.332 27.4142 117.401 27.4572 117.456 27.5097C117.522 27.579 117.57 27.6577 117.627 27.7341C117.67 27.7914 117.722 27.8415 117.755 27.9036C117.81 27.9967 117.841 28.0994 117.879 28.1996C117.9 28.2545 117.931 28.3047 117.945 28.362ZM114.204 53.9476V32.1671L106.212 36.7886L95.1696 43.1743V64.9548L114.207 53.9476H114.204ZM91.3645 93.3477V71.5529L80.5031 77.7834L49.4873 95.563V117.563L91.3645 93.3477ZM3.80745 19.1833V93.3477L45.6799 117.561V95.5654L23.8049 83.1307L23.7977 83.1259L23.7882 83.1211C23.7146 83.0782 23.6528 83.0161 23.5838 82.9636C23.5244 82.9158 23.4555 82.8776 23.4032 82.8251L23.3985 82.818C23.3367 82.7583 23.2939 82.6843 23.2416 82.6174C23.1941 82.553 23.137 82.4981 23.099 82.4312L23.0966 82.4241C23.0538 82.3525 23.0277 82.2665 22.9968 82.1854C22.9659 82.1138 22.9255 82.0469 22.9065 81.9705V81.9681C22.8827 81.8774 22.878 81.7819 22.8685 81.6888C22.859 81.6172 22.8399 81.5456 22.8399 81.474V81.4692V30.1905L11.8002 23.8025L3.80745 19.1857V19.1833ZM24.746 4.87463L5.71593 15.8771L24.7413 26.8795L43.769 15.8747L24.7413 4.87463H24.746ZM34.6426 73.5391L45.6823 67.1558V19.1833L37.6895 23.8049L26.6474 30.1905V78.163L34.6426 73.5391ZM93.2683 17.8584L74.2405 28.8609L93.2683 39.8633L112.294 28.8585L93.2683 17.8584ZM91.3645 43.1743L80.3225 36.7886L72.3297 32.1671V53.9476L83.3694 60.3309L91.3645 64.9548V43.1743ZM47.5812 92.2568L75.4907 76.2533L89.4418 68.2563L70.4283 57.261L48.5367 69.9201L28.5844 81.4573L47.5812 92.2568Z" fill="#FF2D20"/>
</g>
<defs>
<clipPath id="clip0">
<rect width="118.834" height="124.133" fill="white" transform="translate(0 0.756958)"/>
</clipPath>
</defs>
</svg>
