<svg xmlns="http://www.w3.org/2000/svg" width="56" height="56" fill="none" viewBox="0 0 56 56"><g clip-path="url(#clip0)"><path fill="#000" d="M17.3697 8.85938H3.34107C1.43854 8.85938 -0.109379 10.4073 -0.109379 12.3098V43.8735C-0.109379 45.7761 1.43854 47.324 3.34107 47.324H17.3693C19.2723 47.324 20.8202 45.7761 20.8202 43.8735V12.3098C20.8202 10.4073 19.2723 8.85938 17.3697 8.85938ZM3.34107 10.5H17.3693C18.3673 10.5 19.1795 11.3118 19.1795 12.3098V42.1765H1.53125V12.3098C1.53125 11.3118 2.34302 10.5 3.34107 10.5ZM17.3697 45.6834H3.34107C2.34302 45.6834 1.53125 44.8716 1.53125 43.8735V43.8171H19.1795V43.8735C19.1795 44.8716 18.3678 45.6834 17.3697 45.6834Z"/><path fill="#000" d="M52.4403 8.85938H38.4116C36.5091 8.85938 34.9612 10.4073 34.9612 12.3098V43.8735C34.9612 45.7761 36.5091 47.324 38.4116 47.324H52.4399C54.3428 47.324 55.8907 45.7761 55.8907 43.8735V12.3098C55.8907 10.4073 54.3428 8.85938 52.4403 8.85938ZM38.4116 10.5H52.4399C53.4379 10.5 54.2501 11.3118 54.2501 12.3098V42.1765H36.6018V12.3098C36.6018 11.3118 37.4136 10.5 38.4116 10.5ZM52.4403 45.6834H38.4116C37.4136 45.6834 36.6018 44.8716 36.6018 43.8735V43.8171H54.2501V43.8735C54.2501 44.8716 53.4383 45.6834 52.4403 45.6834Z"/><path fill="#000" d="M4.21778 25.405H16.4926C16.9459 25.405 17.3129 25.038 17.3129 24.5847V14.0637C17.3129 13.6104 16.9459 13.2434 16.4926 13.2434H4.21778C3.7649 13.2434 3.39746 13.6104 3.39746 14.0637V18.4473C3.39746 18.9006 3.7649 19.2676 4.21778 19.2676C4.67109 19.2676 5.03809 18.9006 5.03809 18.4473V15.8471L9.0948 19.324L5.03809 22.8013V21.9545C5.03809 21.5012 4.67109 21.1342 4.21778 21.1342C3.7649 21.1342 3.39746 21.5012 3.39746 21.9545V24.5847C3.39746 25.038 3.7649 25.405 4.21778 25.405ZM11.616 19.324L15.6723 15.8471V22.8013L11.616 19.324ZM6.43562 14.884H14.2752L10.3552 18.2439L6.43562 14.884ZM14.2752 23.7644H6.43562L10.3556 20.4045L14.2752 23.7644Z"/><path fill="#000" d="M4.21778 39.4331H16.4926C16.9459 39.4331 17.3129 39.0656 17.3129 38.6128V28.0918C17.3129 27.6385 16.9459 27.2715 16.4926 27.2715H4.21778C3.7649 27.2715 3.39746 27.6385 3.39746 28.0918V38.6128C3.39746 39.0656 3.7649 39.4331 4.21778 39.4331ZM15.6723 36.8294L11.616 33.3521L15.6723 29.8751V36.8294ZM14.2752 37.7924H6.43562L10.3556 34.4326L14.2752 37.7924ZM10.3552 32.272L6.43562 28.9121H14.2752L10.3552 32.272ZM9.0948 33.3521L5.03809 36.8294V29.8751L9.0948 33.3521Z"/><path fill="#000" d="M39.2888 25.405H51.5631C52.0165 25.405 52.3835 25.038 52.3835 24.5847V19.324C52.3835 18.8711 52.0165 18.5037 51.5631 18.5037C51.1103 18.5037 50.7428 18.8711 50.7428 19.324V23.7644H40.1091V14.884H50.7428V15.8171C50.7428 16.27 51.1103 16.6375 51.5631 16.6375C52.0165 16.6375 52.3835 16.27 52.3835 15.8171V14.0637C52.3835 13.6104 52.0165 13.2434 51.5631 13.2434H39.2888C38.8355 13.2434 38.4685 13.6104 38.4685 14.0637V24.5847C38.4685 25.038 38.8355 25.405 39.2888 25.405Z"/><path fill="#000" d="M51.5636 27.2715H43.6723C43.2195 27.2715 42.852 27.6385 42.852 28.0918C42.852 28.5447 43.2195 28.9121 43.6723 28.9121H51.5636C52.0165 28.9121 52.3839 28.5447 52.3839 28.0918C52.3839 27.6385 52.0165 27.2715 51.5636 27.2715Z"/><path fill="#000" d="M51.5636 30.7783H43.6723C43.2195 30.7783 42.852 31.1458 42.852 31.5986C42.852 32.0515 43.2195 32.4189 43.6723 32.4189H51.5636C52.0165 32.4189 52.3839 32.0515 52.3839 31.5986C52.3839 31.1458 52.0165 30.7783 51.5636 30.7783Z"/><path fill="#000" d="M51.5636 37.7925H43.6723C43.2195 37.7925 42.852 38.1599 42.852 38.6128C42.852 39.0657 43.2195 39.4331 43.6723 39.4331H51.5636C52.0165 39.4331 52.3839 39.0657 52.3839 38.6128C52.3839 38.1599 52.0165 37.7925 51.5636 37.7925Z"/><path fill="#000" d="M51.5636 34.2856H43.6723C43.2195 34.2856 42.852 34.6526 42.852 35.106C42.852 35.5588 43.2195 35.9263 43.6723 35.9263H51.5636C52.0165 35.9263 52.3839 35.5588 52.3839 35.106C52.3839 34.6526 52.0165 34.2856 51.5636 34.2856Z"/><path fill="#000" d="M39.2888 28.9121H40.1655C40.6184 28.9121 40.9858 28.5447 40.9858 28.0918C40.9858 27.6385 40.6184 27.2715 40.1655 27.2715H39.2888C38.8355 27.2715 38.4685 27.6385 38.4685 28.0918C38.4685 28.5447 38.8355 28.9121 39.2888 28.9121Z"/><path fill="#000" d="M39.2888 32.4189H40.1655C40.6184 32.4189 40.9858 32.0515 40.9858 31.5986C40.9858 31.1458 40.6184 30.7783 40.1655 30.7783H39.2888C38.8355 30.7783 38.4685 31.1458 38.4685 31.5986C38.4685 32.0515 38.8355 32.4189 39.2888 32.4189Z"/><path fill="#000" d="M39.2888 39.4331H40.1655C40.6184 39.4331 40.9858 39.0657 40.9858 38.6128C40.9858 38.1599 40.6184 37.7925 40.1655 37.7925H39.2888C38.8355 37.7925 38.4685 38.1599 38.4685 38.6128C38.4685 39.0657 38.8355 39.4331 39.2888 39.4331Z"/><path fill="#000" d="M39.2888 35.9263H40.1655C40.6184 35.9263 40.9858 35.5588 40.9858 35.106C40.9858 34.6526 40.6184 34.2856 40.1655 34.2856H39.2888C38.8355 34.2856 38.4685 34.6526 38.4685 35.106C38.4685 35.5588 38.8355 35.9263 39.2888 35.9263Z"/><path fill="#000" d="M32.6963 27.3881L28.3128 24.758C27.924 24.5247 27.4203 24.6508 27.187 25.0391C26.9542 25.4279 27.0802 25.9317 27.4686 26.1649L29.313 27.2715H23.5067C23.0538 27.2715 22.6864 27.6385 22.6864 28.0918C22.6864 28.5447 23.0538 28.9121 23.5067 28.9121H29.313L27.4686 30.0187C27.0802 30.2516 26.9542 30.7557 27.187 31.1441C27.3408 31.4004 27.6125 31.5423 27.8915 31.5423C28.0351 31.5423 28.1804 31.5047 28.3128 31.4252L32.6963 28.7951C32.9437 28.6468 33.0945 28.3798 33.0945 28.0918C33.0945 27.8034 32.9437 27.5364 32.6963 27.3881Z"/></g><defs><clipPath id="clip0"><rect width="56" height="56" fill="#fff"/></clipPath></defs></svg>