<svg xmlns="http://www.w3.org/2000/svg" width="114" height="122" fill="none" viewBox="0 0 114 122"><path fill="#39CEFD" d="M47.8374 107.795L99.779 56.2323H62.0108L28.9593 89.0471L47.8374 107.795Z"/><path fill="#39CEFD" d="M0.624268 60.9251L62.0108 0H99.779L19.5143 79.673L0.624268 60.9251Z"/><path fill="#03569B" d="M62.0108 121.85H99.779L66.7274 89.047L47.8374 107.795L62.0108 121.85Z"/><path fill="url(#paint0_linear)" d="M66.7274 89.047L47.8374 107.795L75.8532 98.1629L66.7274 89.047Z"/><path fill="#16B9FD" d="M28.9593 89.0353L47.8492 70.2874L66.7392 89.0353L47.8492 107.795L28.9593 89.0353Z"/><path fill="url(#paint1_radial)" d="M99.779 56.2322L66.7274 89.047L99.779 121.862H62.0108L47.8374 107.795L28.9474 89.047L62.0108 56.2322H99.779ZM62.0108 0L0.624268 60.9251L19.5143 79.673L99.779 0H62.0108Z"/><defs><linearGradient id="paint0_linear" x1="-2962.62" x2="-2962.07" y1="-1317.37" y2="-1317.91" gradientUnits="userSpaceOnUse"><stop stop-color="#1A237E" stop-opacity=".4"/><stop offset="1" stop-color="#1A237E" stop-opacity="0"/></linearGradient><radialGradient id="paint1_radial" cx="0" cy="0" r="1" gradientTransform="translate(-2707.62 -1096.09) scale(5.83111 5.78728)" gradientUnits="userSpaceOnUse"><stop stop-color="#fff" stop-opacity=".1"/><stop offset="1" stop-color="#fff" stop-opacity="0"/></radialGradient></defs></svg>