<svg xmlns="http://www.w3.org/2000/svg" width="50" height="50" fill="none" viewBox="0 0 50 50"><path fill="#fff" fill-rule="evenodd" d="M18.5158 48.1714C18.5158 47.5718 18.4946 45.9852 18.4825 43.878C11.6356 45.4026 10.191 40.4941 10.191 40.4941C9.07125 37.5781 7.45738 36.8019 7.45738 36.8019C5.22243 35.2354 7.62662 35.268 7.62662 35.268C10.0973 35.4461 11.3969 37.8694 11.3969 37.8694C13.5925 41.7259 17.1573 40.6134 18.5611 39.9673C18.7847 38.3358 19.4209 37.2233 20.1236 36.5927C14.6579 35.9559 8.91107 33.7898 8.91107 24.1184C8.91107 21.3636 9.87063 19.1107 11.4452 17.346C11.1929 16.7076 10.3466 14.1418 11.687 10.6664C11.687 10.6664 13.7542 9.98781 18.4553 13.254C20.4182 12.6946 22.5247 12.4126 24.6192 12.4033C26.709 12.4126 28.814 12.6946 30.7815 13.254C35.4796 9.98781 37.5438 10.6664 37.5438 10.6664C38.8872 14.1402 38.0424 16.706 37.7886 17.346C39.3662 19.1107 40.3182 21.3636 40.3182 24.1184C40.3182 33.8146 34.5623 35.9481 29.0785 36.5726C29.964 37.3519 30.7498 38.892 30.7498 41.2471C30.7498 44.6217 30.718 47.3441 30.718 48.1714C30.718 48.847 31.1623 49.631 32.412 49.3846C42.1844 46.041 49.2308 36.5865 49.2308 25.4401C49.2308 11.5 38.2087 0.200195 24.6146 0.200195C11.0221 0.200195 0 11.5 0 25.4401C0.00151112 36.5896 7.05391 46.0503 16.8354 49.3877C18.0654 49.6186 18.5158 48.8392 18.5158 48.1714Z" clip-rule="evenodd"/></svg>