<svg xmlns="http://www.w3.org/2000/svg" width="204" height="57" fill="none" viewBox="0 0 204 57"><rect width="54" height="54" x="1.5" y="1.5" stroke="#fff" stroke-width="3"/><path fill="#fff" d="M29.6146 32.303L27.5896 34.301V38H23.3776V17.966H27.5896V29.306L33.7456 23.474H38.7676L32.7196 29.63L39.3076 38H34.2046L29.6146 32.303ZM54.798 30.791C54.798 30.845 54.771 31.223 54.717 31.925H43.728C43.926 32.825 44.394 33.536 45.132 34.058C45.87 34.58 46.788 34.841 47.886 34.841C48.642 34.841 49.308 34.733 49.884 34.517C50.478 34.283 51.027 33.923 51.531 33.437L53.772 35.867C52.404 37.433 50.406 38.216 47.778 38.216C46.14 38.216 44.691 37.901 43.431 37.271C42.171 36.623 41.199 35.732 40.515 34.598C39.831 33.464 39.489 32.177 39.489 30.737C39.489 29.315 39.822 28.037 40.488 26.903C41.172 25.751 42.099 24.86 43.269 24.23C44.457 23.582 45.78 23.258 47.238 23.258C48.66 23.258 49.947 23.564 51.099 24.176C52.251 24.788 53.151 25.67 53.799 26.822C54.465 27.956 54.798 29.279 54.798 30.791ZM47.265 26.444C46.311 26.444 45.51 26.714 44.862 27.254C44.214 27.794 43.818 28.532 43.674 29.468H50.829C50.685 28.55 50.289 27.821 49.641 27.281C48.993 26.723 48.201 26.444 47.265 26.444ZM71.7565 23.474L65.6275 38H61.2805L55.1785 23.474H59.5255L63.5485 33.356L67.7065 23.474H71.7565ZM73.4753 23.474H77.6873V38H73.4753V23.474ZM75.5813 21.449C74.8073 21.449 74.1773 21.224 73.6913 20.774C73.2053 20.324 72.9623 19.766 72.9623 19.1C72.9623 18.434 73.2053 17.876 73.6913 17.426C74.1773 16.976 74.8073 16.751 75.5813 16.751C76.3553 16.751 76.9853 16.967 77.4713 17.399C77.9573 17.831 78.2003 18.371 78.2003 19.019C78.2003 19.721 77.9573 20.306 77.4713 20.774C76.9853 21.224 76.3553 21.449 75.5813 21.449ZM90.4253 23.258C92.2253 23.258 93.6743 23.798 94.7723 24.878C95.8883 25.958 96.4463 27.56 96.4463 29.684V38H92.2343V30.332C92.2343 29.18 91.9823 28.325 91.4783 27.767C90.9743 27.191 90.2453 26.903 89.2913 26.903C88.2293 26.903 87.3833 27.236 86.7533 27.902C86.1233 28.55 85.8083 29.522 85.8083 30.818V38H81.5963V23.474H85.6193V25.175C86.1773 24.563 86.8703 24.095 87.6983 23.771C88.5263 23.429 89.4353 23.258 90.4253 23.258ZM114.419 23.474L107.858 38.891C107.192 40.565 106.364 41.744 105.374 42.428C104.402 43.112 103.223 43.454 101.837 43.454C101.081 43.454 100.334 43.337 99.5956 43.103C98.8576 42.869 98.2546 42.545 97.7866 42.131L99.3256 39.134C99.6496 39.422 100.019 39.647 100.433 39.809C100.865 39.971 101.288 40.052 101.702 40.052C102.278 40.052 102.746 39.908 103.106 39.62C103.466 39.35 103.79 38.891 104.078 38.243L104.132 38.108L97.8406 23.474H102.188L106.265 33.329L110.369 23.474H114.419ZM122.654 38.216C121.124 38.216 119.747 37.901 118.523 37.271C117.317 36.623 116.372 35.732 115.688 34.598C115.004 33.464 114.662 32.177 114.662 30.737C114.662 29.297 115.004 28.01 115.688 26.876C116.372 25.742 117.317 24.86 118.523 24.23C119.747 23.582 121.124 23.258 122.654 23.258C124.184 23.258 125.552 23.582 126.758 24.23C127.964 24.86 128.909 25.742 129.593 26.876C130.277 28.01 130.619 29.297 130.619 30.737C130.619 32.177 130.277 33.464 129.593 34.598C128.909 35.732 127.964 36.623 126.758 37.271C125.552 37.901 124.184 38.216 122.654 38.216ZM122.654 34.76C123.734 34.76 124.616 34.4 125.3 33.68C126.002 32.942 126.353 31.961 126.353 30.737C126.353 29.513 126.002 28.541 125.3 27.821C124.616 27.083 123.734 26.714 122.654 26.714C121.574 26.714 120.683 27.083 119.981 27.821C119.279 28.541 118.928 29.513 118.928 30.737C118.928 31.961 119.279 32.942 119.981 33.68C120.683 34.4 121.574 34.76 122.654 34.76ZM142.02 23.258C143.37 23.258 144.594 23.573 145.692 24.203C146.808 24.815 147.681 25.688 148.311 26.822C148.941 27.938 149.256 29.243 149.256 30.737C149.256 32.231 148.941 33.545 148.311 34.679C147.681 35.795 146.808 36.668 145.692 37.298C144.594 37.91 143.37 38.216 142.02 38.216C140.022 38.216 138.501 37.586 137.457 36.326V38H133.434V17.966H137.646V25.013C138.708 23.843 140.166 23.258 142.02 23.258ZM141.291 34.76C142.371 34.76 143.253 34.4 143.937 33.68C144.639 32.942 144.99 31.961 144.99 30.737C144.99 29.513 144.639 28.541 143.937 27.821C143.253 27.083 142.371 26.714 141.291 26.714C140.211 26.714 139.32 27.083 138.618 27.821C137.934 28.541 137.592 29.513 137.592 30.737C137.592 31.961 137.934 32.942 138.618 33.68C139.32 34.4 140.211 34.76 141.291 34.76ZM166.305 30.791C166.305 30.845 166.278 31.223 166.224 31.925H155.235C155.433 32.825 155.901 33.536 156.639 34.058C157.377 34.58 158.295 34.841 159.393 34.841C160.149 34.841 160.815 34.733 161.391 34.517C161.985 34.283 162.534 33.923 163.038 33.437L165.279 35.867C163.911 37.433 161.913 38.216 159.285 38.216C157.647 38.216 156.198 37.901 154.938 37.271C153.678 36.623 152.706 35.732 152.022 34.598C151.338 33.464 150.996 32.177 150.996 30.737C150.996 29.315 151.329 28.037 151.995 26.903C152.679 25.751 153.606 24.86 154.776 24.23C155.964 23.582 157.287 23.258 158.745 23.258C160.167 23.258 161.454 23.564 162.606 24.176C163.758 24.788 164.658 25.67 165.306 26.822C165.972 27.956 166.305 29.279 166.305 30.791ZM158.772 26.444C157.818 26.444 157.017 26.714 156.369 27.254C155.721 27.794 155.325 28.532 155.181 29.468H162.336C162.192 28.55 161.796 27.821 161.148 27.281C160.5 26.723 159.708 26.444 158.772 26.444ZM178.478 37.298C178.064 37.604 177.551 37.838 176.939 38C176.345 38.144 175.715 38.216 175.049 38.216C173.321 38.216 171.98 37.775 171.026 36.893C170.09 36.011 169.622 34.715 169.622 33.005V27.038H167.381V23.798H169.622V20.261H173.834V23.798H177.452V27.038H173.834V32.951C173.834 33.563 173.987 34.04 174.293 34.382C174.617 34.706 175.067 34.868 175.643 34.868C176.309 34.868 176.876 34.688 177.344 34.328L178.478 37.298ZM189.671 23.258C191.471 23.258 192.92 23.798 194.018 24.878C195.134 25.958 195.692 27.56 195.692 29.684V38H191.48V30.332C191.48 29.18 191.228 28.325 190.724 27.767C190.22 27.191 189.491 26.903 188.537 26.903C187.475 26.903 186.629 27.236 185.999 27.902C185.369 28.55 185.054 29.522 185.054 30.818V38H180.842V17.966H185.054V24.986C185.612 24.428 186.287 24.005 187.079 23.717C187.871 23.411 188.735 23.258 189.671 23.258Z"/></svg>