<svg width="56" height="56" viewBox="0 0 56 56" fill="none" xmlns="http://www.w3.org/2000/svg">
<path d="M43.9688 18.1562C43.365 18.1562 42.875 18.6463 42.875 19.25C42.875 19.8537 43.365 20.3438 43.9688 20.3438C44.5725 20.3438 45.0625 19.8537 45.0625 19.25C45.0625 18.6463 44.5725 18.1562 43.9688 18.1562Z" fill="black"/>
<path d="M52.7188 13.7812H40.7072L37.2393 6.84545C36.6797 5.72644 35.5551 5.03125 34.3044 5.03125H21.6956C20.4447 5.03125 19.3201 5.72644 18.7607 6.84556L15.2928 13.7812H13.125V12.6875C13.125 10.8782 11.653 9.40625 9.84375 9.40625H7.65625C5.84697 9.40625 4.375 10.8782 4.375 12.6875V13.7812H3.28125C1.47197 13.7812 0 15.2532 0 17.0625C0 20.0348 0 46.5313 0 47.6875C0 49.4968 1.47197 50.9688 3.28125 50.9688H52.7188C54.528 50.9688 56 49.4968 56 47.6875C56 44.7152 56 18.2187 56 17.0625C56 15.2532 54.528 13.7812 52.7188 13.7812ZM20.7173 7.82381C20.9039 7.45062 21.2787 7.21875 21.6956 7.21875H34.3044C34.7213 7.21875 35.0962 7.45062 35.2828 7.82381L38.2616 13.7812H17.7384L20.7173 7.82381ZM6.5625 12.6875C6.5625 12.0844 7.05316 11.5938 7.65625 11.5938H9.84375C10.4468 11.5938 10.9375 12.0844 10.9375 12.6875V13.7812H6.5625V12.6875ZM2.1875 24.7078H16.0181C14.5645 26.9785 13.7812 29.6397 13.7812 32.375C13.7812 35.1105 14.5646 37.761 16.018 40.0312H2.1875V24.7078ZM28 20.3438C34.577 20.3438 40.0312 25.6724 40.0312 32.375C40.0312 39.0701 34.5847 44.4062 28 44.4062C21.4094 44.4062 15.9688 39.0642 15.9688 32.375C15.9688 25.6807 21.4145 20.3438 28 20.3438ZM53.8125 47.6875C53.8125 48.2906 53.3218 48.7812 52.7188 48.7812H3.28125C2.67816 48.7812 2.1875 48.2906 2.1875 47.6875V42.2188H17.7435C20.416 45.0047 24.1254 46.5938 28 46.5938C31.8753 46.5938 35.5849 45.0043 38.2566 42.2188H53.8125V47.6875ZM53.8125 40.0312H39.9819C41.4355 37.7605 42.2188 35.1104 42.2188 32.375C42.2188 29.6396 41.4355 26.9895 39.9819 24.7188H53.8125V40.0312ZM53.8125 22.5312H38.2565C35.5841 19.7452 31.8747 18.1562 28 18.1562C24.1248 18.1562 20.4152 19.7457 17.7434 22.5312H2.1875V17.0625C2.1875 16.4594 2.67816 15.9688 3.28125 15.9688C4.27448 15.9688 51.1812 15.9688 52.7188 15.9688C53.3218 15.9688 53.8125 16.4594 53.8125 17.0625V22.5312Z" fill="black"/>
<path d="M31.2812 9.40625H24.7188C24.1147 9.40625 23.625 9.89592 23.625 10.5C23.625 11.1041 24.1147 11.5938 24.7188 11.5938H31.2812C31.8852 11.5938 32.375 11.1041 32.375 10.5C32.375 9.89592 31.8852 9.40625 31.2812 9.40625Z" fill="black"/>
<path d="M28 22.5312C22.5722 22.5312 18.1562 26.9472 18.1562 32.375C18.1562 37.8028 22.5722 42.2188 28 42.2188C33.4278 42.2188 37.8438 37.8028 37.8438 32.375C37.8438 26.9472 33.4278 22.5312 28 22.5312ZM28 40.0312C23.7783 40.0312 20.3438 36.5967 20.3438 32.375C20.3438 28.1533 23.7783 24.7188 28 24.7188C32.2217 24.7188 35.6562 28.1533 35.6562 32.375C35.6562 36.5967 32.2217 40.0312 28 40.0312Z" fill="black"/>
<path d="M28 26.9062C24.9845 26.9062 22.5312 29.3595 22.5312 32.375C22.5312 32.9791 23.0209 33.4688 23.625 33.4688C24.2291 33.4688 24.7188 32.9791 24.7188 32.375C24.7188 30.5657 26.1907 29.0938 28 29.0938C28.604 29.0938 29.0938 28.6041 29.0938 28C29.0938 27.3959 28.604 26.9062 28 26.9062Z" fill="black"/>
<path d="M50.5312 18.1562H48.3438C47.7398 18.1562 47.25 18.6459 47.25 19.25C47.25 19.8541 47.7398 20.3438 48.3438 20.3438H50.5312C51.1352 20.3438 51.625 19.8541 51.625 19.25C51.625 18.6459 51.1352 18.1562 50.5312 18.1562Z" fill="black"/>
</svg>
